HIERARCHY
ROOT hip
{
  OFFSET 0 0 0
  CHANNELS 6 Xposition Yposition Zposition Zrotation Yrotation Xrotation
  JOINT abdomen
  {
    OFFSET 0 20.6881 -0.73152
    CHANNELS 3 Zrotation Xrotation Yrotation
    JOINT chest
    {
      OFFSET 0 11.7043 -0.48768
      CHANNELS 3 Zrotation Xrotation Yrotation
      JOINT neck
      {
        OFFSET 0 22.1894 -2.19456
        CHANNELS 3 Zrotation Xrotation Yrotation
        JOINT head
        {
          OFFSET -0.24384 7.07133 1.2192
          CHANNELS 3 Zrotation Xrotation Yrotation
          JOINT leftEye
          {
            OFFSET 4.14528 8.04674 8.04672
            CHANNELS 3 Zrotation Xrotation Yrotation
            End Site
            {
              OFFSET 1 0 0
            }
          }
          JOINT rightEye
          {
            OFFSET -3.6576 8.04674 8.04672
            CHANNELS 3 Zrotation Xrotation Yrotation
            End Site
            {
              OFFSET 1 0 0
            }
          }
        }
      }
      JOINT rCollar
      {
        OFFSET -2.68224 19.2634 -4.8768
        CHANNELS 3 Zrotation Xrotation Yrotation
        JOINT rShldr
        {
          OFFSET -8.77824 -1.95073 1.46304
          CHANNELS 3 Zrotation Xrotation Yrotation
          JOINT rForeArm
          {
            OFFSET -28.1742 -1.7115 0.48768
            CHANNELS 3 Zrotation Xrotation Yrotation
            JOINT rHand
            {
              OFFSET -22.5879 0.773209 7.07136
              CHANNELS 3 Zrotation Xrotation Yrotation
              JOINT rThumb1
              {
                OFFSET -1.2192 -0.487915 3.41376
                CHANNELS 3 Zrotation Xrotation Yrotation
                JOINT rThumb2
                {
                  OFFSET -3.37035 -0.52449 3.41376
                  CHANNELS 3 Zrotation Xrotation Yrotation
                  End Site
                  {
                    OFFSET -1.78271 -1.18214 1.43049
                  }
                }
              }
              JOINT rIndex1
              {
                OFFSET -7.75947 0.938293 5.60832
                CHANNELS 3 Zrotation Xrotation Yrotation
                JOINT rIndex2
                {
                  OFFSET -2.54057 -0.884171 1.56538
                  CHANNELS 3 Zrotation Xrotation Yrotation
                  End Site
                  {
                    OFFSET -1.62519 -0.234802 1.16502
                  }
                }
              }
              JOINT rMid1
              {
                OFFSET -8.24714 1.18213 3.41376
                CHANNELS 3 Zrotation Xrotation Yrotation
                JOINT rMid2
                {
                  OFFSET -3.10165 -0.590103 1.0647
                  CHANNELS 3 Zrotation Xrotation Yrotation
                  End Site
                  {
                    OFFSET -2.48547 -0.328903 0.83742
                  }
                }
              }
              JOINT rRing1
              {
                OFFSET -8.82822 0.546677 1.51678
                CHANNELS 3 Zrotation Xrotation Yrotation
                JOINT rRing2
                {
                  OFFSET -2.60934 -0.819778 -0.0198488
                  CHANNELS 3 Zrotation Xrotation Yrotation
                  End Site
                  {
                    OFFSET -2.33842 -0.294052 0.168128
                  }
                }
              }
              JOINT rPinky1
              {
                OFFSET -8.27202 -0.0477905 -0.4584
                CHANNELS 3 Zrotation Xrotation Yrotation
                JOINT rPinky2
                {
                  OFFSET -1.82734 -0.647385 -0.700984
                  CHANNELS 3 Zrotation Xrotation Yrotation
                  End Site
                  {
                    OFFSET -1.69225 -0.51767 -0.607171
                  }
                }
              }
            }
          }
        }
      }
      JOINT lCollar
      {
        OFFSET 2.68224 19.2634 -4.8768
        CHANNELS 3 Zrotation Xrotation Yrotation
        JOINT lShldr
        {
          OFFSET 8.77824 -1.95073 1.46304
          CHANNELS 3 Zrotation Xrotation Yrotation
          JOINT lForeArm
          {
            OFFSET 28.1742 -1.7115 0.48768
            CHANNELS 3 Zrotation Xrotation Yrotation
            JOINT lHand
            {
              OFFSET 22.5879 0.773209 7.07136
              CHANNELS 3 Zrotation Xrotation Yrotation
              JOINT lThumb1
              {
                OFFSET 1.2192 -0.487915 3.41376
                CHANNELS 3 Zrotation Xrotation Yrotation
                JOINT lThumb2
                {
                  OFFSET 3.37035 -0.52449 3.41376
                  CHANNELS 3 Zrotation Xrotation Yrotation
                  End Site
                  {
                    OFFSET 1.78271 -1.18214 1.43049
                  }
                }
              }
              JOINT lIndex1
              {
                OFFSET 7.75947 0.938293 5.60832
                CHANNELS 3 Zrotation Xrotation Yrotation
                JOINT lIndex2
                {
                  OFFSET 2.54057 -0.884171 1.56538
                  CHANNELS 3 Zrotation Xrotation Yrotation
                  End Site
                  {
                    OFFSET 1.62519 -0.234802 1.16502
                  }
                }
              }
              JOINT lMid1
              {
                OFFSET 8.24714 1.18213 3.41376
                CHANNELS 3 Zrotation Xrotation Yrotation
                JOINT lMid2
                {
                  OFFSET 3.10165 -0.590103 1.0647
                  CHANNELS 3 Zrotation Xrotation Yrotation
                  End Site
                  {
                    OFFSET 2.48547 -0.328903 0.83742
                  }
                }
              }
              JOINT lRing1
              {
                OFFSET 8.82822 0.546677 1.51678
                CHANNELS 3 Zrotation Xrotation Yrotation
                JOINT lRing2
                {
                  OFFSET 2.60934 -0.819778 -0.0198488
                  CHANNELS 3 Zrotation Xrotation Yrotation
                  End Site
                  {
                    OFFSET 2.33842 -0.294052 0.168128
                  }
                }
              }
              JOINT lPinky1
              {
                OFFSET 8.27202 -0.0477905 -0.4584
                CHANNELS 3 Zrotation Xrotation Yrotation
                JOINT lPinky2
                {
                  OFFSET 1.82734 -0.647385 -0.700984
                  CHANNELS 3 Zrotation Xrotation Yrotation
                  End Site
                  {
                    OFFSET 1.69225 -0.51767 -0.607171
                  }
                }
              }
            }
          }
        }
      }
    }
  }
  JOINT rButtock
  {
    OFFSET -8.77824 4.35084 1.2192
    CHANNELS 3 Zrotation Xrotation Yrotation
    JOINT rThigh
    {
      OFFSET 0 -1.70687 -2.19456
      CHANNELS 3 Zrotation Xrotation Yrotation
      JOINT rShin
      {
        OFFSET 0 -36.8199 0.73152
        CHANNELS 3 Zrotation Xrotation Yrotation
        JOINT rFoot
        {
          OFFSET 0.73152 -45.1104 -5.12064
          CHANNELS 3 Zrotation Xrotation Yrotation
          End Site
          {
            OFFSET -1.1221 -3.69964 12.103
          }
        }
      }
    }
  }
  JOINT lButtock
  {
    OFFSET 8.77824 4.35084 1.2192
    CHANNELS 3 Zrotation Xrotation Yrotation
    JOINT lThigh
    {
      OFFSET 0 -1.70687 -2.19456
      CHANNELS 3 Zrotation Xrotation Yrotation
      JOINT lShin
      {
        OFFSET 0 -36.8199 0.73152
        CHANNELS 3 Zrotation Xrotation Yrotation
        JOINT lFoot
        {
          OFFSET -0.73152 -45.1104 -5.12064
          CHANNELS 3 Zrotation Xrotation Yrotation
          End Site
          {
            OFFSET 1.1221 -3.69964 12.103
          }
        }
      }
    }
  }
}
MOTION
Frames:	4
Frame Time:	0.00833333
-47.9754 84.8839 -62.3299 0.0 0.0 0.0 -0.194078 -0.000752046 -0.00553945 -0.0535366 -0.00112971 -0.00927453 -1.97328e-15 -1.59028e-15 1.86361e-17 -6.00081e-15 -6.36111e-15 5.59082e-17 -0.0 0.0 0.0 -0.0 0.0 0.0 -9.45564e-16 3.49426e-18 2.48481e-16 -1.91272e-14 5.40446e-16 7.95139e-16 -3.64323e-13 1.13108e-13 3.49861e-14 -4.13216e-12 -8.75895e-14 -1.27222e-14 -9.75578e-12 4.82223e-14 9.85972e-14 -1.68538e-11 8.26944e-14 1.60618e-13 -9.75158e-12 5.00937e-14 8.5875e-14 7.73091 5.47488 0.417314 -9.75561e-12 4.84041e-14 9.54166e-14 2.90554 0.965183 0.102902 -9.74569e-12 4.85035e-14 9.38264e-14 10.2786 0.731801 0.0259123 -9.75754e-12 4.92986e-14 1.04958e-13 2.22167 -0.733487 -0.20892 -1.04235e-15 3.30014e-18 -2.48481e-16 -2.30375e-14 -2.48481e-17 -3.97569e-16 -3.60943e-13 -1.05555e-13 -1.59028e-14 -4.13851e-12 1.1942e-13 6.99722e-14 -9.75616e-12 3.02573e-14 9.54166e-14 -1.68383e-11 5.08889e-14 1.65389e-13 -9.76232e-12 3.22031e-14 1.08139e-13 -7.73091 5.47488 -0.417314 -9.75576e-12 3.05134e-14 9.22361e-14 -2.90554 0.965183 -0.102902 -9.76139e-12 3.06128e-14 9.46215e-14 -10.2786 0.731801 -0.0259123 -9.74701e-12 3.29983e-14 8.5875e-14 -2.22167 -0.733487 0.20892 -2.03217e-16 0.0 -3.88251e-19 0.355869 -2.82713 -0.0340698 -0.00665518 -0.431856 -0.0584483 -0.50256 3.25829 0.123802 2.03217e-16 0.0 3.88251e-19 -0.651346 -3.58304 0.0525567 0.00445991 0.937458 0.0381194 0.504954 2.64491 -0.11159
-53.8244 83.881 -65.8372 81.9184 -83.3121 -84.0586 -1.17231 3.44106 1.50166 0.118039 -0.984021 0.35644 -2.48604 0.137358 1.28618 1.87407 8.11337 1.8578 -0.0 0.0 0.0 -0.0 0.0 0.0 5.16276e-14 6.36959e-13 -1.09378e-14 21.4282 2.24815 0.100497 -4.97243 -2.43255 7.56918 0.0126358 2.49396 0.349305 -4.6829e-10 2.46233e-10 1.91144e-10 -8.06925e-10 4.2388e-10 3.34542e-10 -4.68287e-10 2.46237e-10 1.91132e-10 7.73091 5.47488 0.417314 -4.68291e-10 2.46235e-10 1.91141e-10 2.90554 0.965183 0.102902 -4.68283e-10 2.46235e-10 1.9114e-10 10.2786 0.731801 0.0259123 -4.68293e-10 2.46235e-10 1.9115e-10 2.22167 -0.733487 -0.20892 5.15605e-14 6.36959e-13 -1.13622e-14 -21.4357 5.35671 -1.58779 4.51659 -2.11489 -6.9852 -0.00206701 1.02019 -0.143299 -7.83095e-10 -4.01792e-10 -1.01491e-09 -1.35823e-09 -6.91644e-10 -1.75183e-09 -7.83103e-10 -4.01787e-10 -1.01489e-09 -7.73091 5.47488 -0.417314 -7.83094e-10 -4.01791e-10 -1.01491e-09 -2.90554 0.965183 -0.102902 -7.831e-10 -4.01792e-10 -1.01491e-09 -10.2786 0.731801 -0.0259123 -7.83087e-10 -4.01789e-10 -1.01492e-09 -2.22167 -0.733487 0.20892 -2.03217e-16 0.0 -3.88251e-19 -3.7153 -6.94885 1.1777 0.00820108 12.2514 0.125917 -0.525821 -1.57622 -0.342499 2.03217e-16 0.0 3.88251e-19 -1.72497 -4.51832 -1.42275 -0.0129286 6.26368 -0.0386963 0.441648 -0.070633 -0.223172
-53.7848 83.8535 -65.5678 81.1781 -83.4692 -83.3521 -2.39242 7.08009 3.11567 0.307485 -2.02398 0.744148 -5.13155 0.271624 2.63791 3.27451 16.6762 3.93353 -0.0 0.0 0.0 -0.0 0.0 0.0 1.09935e-13 1.34014e-12 -2.26739e-14 44.0554 4.62089 0.214333 -9.53644 -4.86249 15.6141 -0.00719907 5.1325 0.72111 -9.76156e-10 5.20083e-10 4.06002e-10 -1.68198e-09 8.95331e-10 7.10531e-10 -9.76154e-10 5.20089e-10 4.05992e-10 7.73091 5.47488 0.417314 -9.76158e-10 5.20087e-10 4.05999e-10 2.90554 0.965183 0.102902 -9.76151e-10 5.20087e-10 4.05999e-10 10.2786 0.731801 0.0259123 -9.7616e-10 5.20086e-10 4.06008e-10 2.22167 -0.733487 -0.20892 1.09903e-13 1.34014e-12 -2.30186e-14 -43.7775 11.0281 -3.3192 8.73489 -4.24575 -14.3997 0.00135285 2.11641 -0.297434 -1.63562e-09 -8.39246e-10 -2.13884e-09 -2.83697e-09 -1.4446e-09 -3.69183e-09 -1.63563e-09 -8.39238e-10 -2.13881e-09 -7.73091 5.47488 -0.417314 -1.63562e-09 -8.39245e-10 -2.13884e-09 -2.90554 0.965183 -0.102902 -1.63562e-09 -8.39246e-10 -2.13884e-09 -10.2786 0.731801 -0.0259123 -1.63561e-09 -8.39244e-10 -2.13885e-09 -2.22167 -0.733487 0.20892 -2.03217e-16 0.0 -3.88251e-19 -7.87111 -11.2841 2.54625 -0.0721239 25.622 0.34943 -0.654945 -6.65383 -0.924213 2.03217e-16 0.0 3.88251e-19 -2.90418 -5.48419 -2.99405 -0.0155578 11.868 -0.121869 0.363183 -2.92724 -0.333048
-53.7394 83.828 -65.2775 81.3394 -83.4721 -83.5097 -3.67894 10.2959 4.58186 0.498872 -2.94933 1.08915 -7.47659 0.411242 3.85864 3.91709 24.2326 6.05264 -0.0 0.0 0.0 -0.0 0.0 0.0 1.56774e-13 1.91087e-12 -3.33104e-14 64.2608 6.74438 0.303359 -13.0339 -6.78932 22.8562 -0.0539808 7.48077 1.05591 -1.38536e-09 7.38603e-10 5.73235e-10 -2.38707e-09 1.27147e-09 1.00331e-09 -1.38536e-09 7.38612e-10 5.73226e-10 7.73091 5.47488 0.417314 -1.38536e-09 7.38609e-10 5.73232e-10 2.90554 0.965183 0.102902 -1.38536e-09 7.38608e-10 5.73233e-10 10.2786 0.731801 0.0259123 -1.38536e-09 7.38608e-10 5.73241e-10 2.22167 -0.733487 -0.20892 1.56766e-13 1.91087e-12 -3.35896e-14 -63.3869 16.0197 -4.93464 12.0341 -5.96827 -21.0608 0.00912664 3.06049 -0.430443 -2.32977e-09 -1.20544e-09 -3.04493e-09 -4.04101e-09 -2.07503e-09 -5.25581e-09 -2.32978e-09 -1.20543e-09 -3.0449e-09 -7.73091 5.47488 -0.417314 -2.32977e-09 -1.20543e-09 -3.04492e-09 -2.90554 0.965183 -0.102902 -2.32978e-09 -1.20544e-09 -3.04493e-09 -10.2786 0.731801 -0.0259123 -2.32977e-09 -1.20543e-09 -3.04494e-09 -2.22167 -0.733487 0.20892 -2.03217e-16 0.0 -3.88251e-19 -11.3181 -15.1663 3.70439 -0.257342 37.6163 0.613602 -0.811498 -11.2425 -1.29925 2.03217e-16 0.0 3.88251e-19 -4.01737 -6.37448 -4.38705 -0.00333987 16.916 -0.200291 0.283148 -5.50156 -0.44864
